ffmpeg version 3.4.6-0ubuntu0.18.04.1 Copyright (c) 2000-2019 the FFmpeg developers
  built with gcc 7 (Ubuntu 7.3.0-16ubuntu3)
  configuration: --prefix=/usr --extra-version=0ubuntu0.18.04.1 --toolchain=hardened --libdir=/usr/lib/x86_64-linux-gnu --incdir=/usr/include/x86_64-linux-gnu --enable-gpl --disable-stripping --enable-avresample --enable-avisynth --enable-gnutls --enable-ladspa --enable-libass --enable-libbluray --enable-libbs2b --enable-libcaca --enable-libcdio --enable-libflite --enable-libfontconfig --enable-libfreetype --enable-libfribidi --enable-libgme --enable-libgsm --enable-libmp3lame --enable-libmysofa --enable-libopenjpeg --enable-libopenmpt --enable-libopus --enable-libpulse --enable-librubberband --enable-librsvg --enable-libshine --enable-libsnappy --enable-libsoxr --enable-libspeex --enable-libssh --enable-libtheora --enable-libtwolame --enable-libvorbis --enable-libvpx --enable-libwavpack --enable-libwebp --enable-libx265 --enable-libxml2 --enable-libxvid --enable-libzmq --enable-libzvbi --enable-omx --enable-openal --enable-opengl --enable-sdl2 --enable-libdc1394 --enable-libdrm --enable-libiec61883 --enable-chromaprint --enable-frei0r --enable-libopencv --enable-libx264 --enable-shared
  WARNING: library configuration mismatch
  avcodec     configuration: --prefix=/usr --extra-version=0ubuntu0.18.04.1 --toolchain=hardened --libdir=/usr/lib/x86_64-linux-gnu --incdir=/usr/include/x86_64-linux-gnu --enable-gpl --disable-stripping --enable-avresample --enable-avisynth --enable-gnutls --enable-ladspa --enable-libass --enable-libbluray --enable-libbs2b --enable-libcaca --enable-libcdio --enable-libflite --enable-libfontconfig --enable-libfreetype --enable-libfribidi --enable-libgme --enable-libgsm --enable-libmp3lame --enable-libmysofa --enable-libopenjpeg --enable-libopenmpt --enable-libopus --enable-libpulse --enable-librubberband --enable-librsvg --enable-libshine --enable-libsnappy --enable-libsoxr --enable-libspeex --enable-libssh --enable-libtheora --enable-libtwolame --enable-libvorbis --enable-libvpx --enable-libwavpack --enable-libwebp --enable-libx265 --enable-libxml2 --enable-libxvid --enable-libzmq --enable-libzvbi --enable-omx --enable-openal --enable-opengl --enable-sdl2 --enable-libdc1394 --enable-libdrm --enable-libiec61883 --enable-chromaprint --enable-frei0r --enable-libopencv --enable-libx264 --enable-shared --enable-version3 --disable-doc --disable-programs --enable-libopencore_amrnb --enable-libopencore_amrwb --enable-libtesseract --enable-libvo_amrwbenc
  libavutil      55. 78.100 / 55. 78.100
  libavcodec     57.107.100 / 57.107.100
  libavformat    57. 83.100 / 57. 83.100
  libavdevice    57. 10.100 / 57. 10.100
  libavfilter     6.107.100 /  6.107.100
  libavresample   3.  7.  0 /  3.  7.  0
  libswscale      4.  8.100 /  4.  8.100
  libswresample   2.  9.100 /  2.  9.100
  libpostproc    54.  7.100 / 54.  7.100
[x11grab @ 0x55aec9c80900] Stream #0: not enough frames to estimate rate; consider increasing probesize
Input #0, x11grab, from ':0':
  Duration: N/A, start: 1570825074.836921, bitrate: N/A
    Stream #0:0: Video: rawvideo (BGR[0] / 0x524742), bgr0, 1366x768, 29.97 fps, 1000k tbr, 1000k tbn, 1000k tbc
Stream mapping:
  Stream #0:0 -> #0:0 (rawvideo (native) -> h264 (libx264))
Press [q] to stop, [?] for help
[swscaler @ 0x55aec9c949a0] Warning: data is not aligned! This can lead to a speed loss
[libx264 @ 0x55aec9c8b5c0] using cpu capabilities: MMX2 SSE2Fast SSSE3 SSE4.2 AVX
[libx264 @ 0x55aec9c8b5c0] profile High, level 3.2
[libx264 @ 0x55aec9c8b5c0] 264 - core 152 r2854 e9a5903 - H.264/MPEG-4 AVC codec - Copyleft 2003-2017 - http://www.videolan.org/x264.html - options: cabac=1 ref=3 deblock=1:0:0 analyse=0x3:0x113 me=hex subme=7 psy=1 psy_rd=1.00:0.00 mixed_ref=1 me_range=16 chroma_me=1 trellis=1 8x8dct=1 cqm=0 deadzone=21,11 fast_pskip=1 chroma_qp_offset=-2 threads=6 lookahead_threads=1 sliced_threads=0 nr=0 decimate=1 interlaced=0 bluray_compat=0 constrained_intra=0 bframes=3 b_pyramid=2 b_adapt=1 b_bias=0 direct=1 weightb=1 open_gop=0 weightp=2 keyint=250 keyint_min=10 scenecut=40 intra_refresh=0 rc_lookahead=40 rc=crf mbtree=1 crf=23.0 qcomp=0.60 qpmin=0 qpmax=69 qpstep=4 ip_ratio=1.40 aq=1:1.00
Output #0, matroska, to 'Login_Happy_Login.mkv':
  Metadata:
    encoder         : Lavf57.83.100
    Stream #0:0: Video: h264 (libx264) (H264 / 0x34363248), yuv420p, 1366x768, q=-1--1, 10 fps, 1k tbn, 10 tbc
    Metadata:
      encoder         : Lavc57.107.100 libx264
    Side data:
      cpb: bitrate max/min/avg: 0/0/0 buffer size: 0 vbv_delay: -1
frame=    7 fps=0.0 q=0.0 size=       0kB time=00:00:00.00 bitrate=N/A dup=0 drop=10 speed=   0x    frame=   12 fps= 12 q=0.0 size=       0kB time=00:00:00.00 bitrate=N/A dup=0 drop=20 speed=   0x    frame=   17 fps= 11 q=0.0 size=       0kB time=00:00:00.00 bitrate=N/A dup=0 drop=31 speed=   0x    frame=   23 fps= 11 q=0.0 size=       0kB time=00:00:00.00 bitrate=N/A dup=0 drop=42 speed=   0x    frame=   28 fps= 10 q=0.0 size=       0kB time=00:00:00.00 bitrate=N/A dup=0 drop=50 speed=   0x    frame=   31 fps=9.5 q=0.0 size=       0kB time=00:00:00.00 bitrate=N/A dup=0 drop=53 speed=   0x    frame=   34 fps=9.0 q=0.0 size=       0kB time=00:00:00.00 bitrate=N/A dup=0 drop=53 speed=   0x    frame=   37 fps=8.6 q=0.0 size=       0kB time=00:00:00.00 bitrate=N/A dup=0 drop=53 speed=   0x    frame=   43 fps=8.9 q=0.0 size=       0kB time=00:00:00.00 bitrate=N/A dup=0 drop=71 speed=   0x    frame=   48 fps=8.8 q=0.0 size=       0kB time=00:00:00.00 bitrate=N/A dup=0 drop=99 speed=   0x    frame=   50 fps=8.0 q=0.0 size=       0kB time=00:00:00.00 bitrate=N/A dup=0 drop=99 speed=   0x    frame=   54 fps=8.0 q=25.0 size=       1kB time=00:00:00.10 bitrate=  57.7kbits/s dup=0 drop=99 speed=0.0149x    frame=   60 fps=8.1 q=25.0 size=       1kB time=00:00:00.70 bitrate=   8.3kbits/s dup=0 drop=120 speed=0.0947x    frame=   66 fps=8.3 q=25.0 size=       1kB time=00:00:01.30 bitrate=   4.5kbits/s dup=0 drop=142 speed=0.164x    frame=   71 fps=8.4 q=25.0 size=       1kB time=00:00:01.80 bitrate=   3.2kbits/s dup=0 drop=182 speed=0.214x    frame=   76 fps=8.5 q=22.0 size=       1kB time=00:00:02.30 bitrate=   2.5kbits/s dup=0 drop=193 speed=0.258x    frame=   82 fps=8.7 q=23.0 size=       1kB time=00:00:03.20 bitrate=   1.8kbits/s dup=0 drop=204 speed=0.339x    frame=   87 fps=8.7 q=25.0 size=       1kB time=00:00:03.90 bitrate=   1.5kbits/s dup=0 drop=214 speed=0.392x    frame=   92 fps=8.8 q=23.0 size=       1kB time=00:00:04.60 bitrate=   1.3kbits/s dup=0 drop=224 speed=0.439x    frame=   97 fps=8.8 q=25.0 size=     262kB time=00:00:05.10 bitrate= 420.7kbits/s dup=0 drop=234 speed=0.464x    frame=  102 fps=8.9 q=25.0 size=     262kB time=00:00:06.30 bitrate= 340.5kbits/s dup=0 drop=245 speed=0.547x    frame=  107 fps=8.9 q=25.0 size=     262kB time=00:00:06.90 bitrate= 310.9kbits/s dup=0 drop=255 speed=0.574x    frame=  113 fps=9.0 q=25.0 size=     262kB time=00:00:07.50 bitrate= 286.1kbits/s dup=0 drop=266 speed=0.598x    frame=  118 fps=9.0 q=25.0 size=     262kB time=00:00:08.00 bitrate= 268.2kbits/s dup=0 drop=276 speed=0.613x    frame=  123 fps=9.1 q=25.0 size=     262kB time=00:00:08.50 bitrate= 252.4kbits/s dup=0 drop=286 speed=0.626x    frame=  128 fps=9.1 q=25.0 size=     262kB time=00:00:09.00 bitrate= 238.4kbits/s dup=0 drop=297 speed=0.638x    frame=  133 fps=9.1 q=25.0 size=     262kB time=00:00:09.50 bitrate= 225.8kbits/s dup=0 drop=307 speed=0.65x    frame=  139 fps=9.2 q=25.0 size=     322kB time=00:00:10.10 bitrate= 261.1kbits/s dup=0 drop=318 speed=0.666x    frame=  144 fps=9.2 q=25.0 size=     322kB time=00:00:10.60 bitrate= 248.8kbits/s dup=0 drop=328 speed=0.676x    frame=  149 fps=9.2 q=25.0 size=     322kB time=00:00:11.10 bitrate= 237.6kbits/s dup=0 drop=338 speed=0.686x    frame=  154 fps=9.2 q=25.0 size=     322kB time=00:00:11.60 bitrate= 227.4kbits/s dup=0 drop=348 speed=0.695x    frame=  159 fps=9.2 q=25.0 size=     322kB time=00:00:12.10 bitrate= 218.0kbits/s dup=0 drop=358 speed=0.704x    frame=  164 fps=9.3 q=25.0 size=     322kB time=00:00:12.60 bitrate= 209.3kbits/s dup=0 drop=369 speed=0.711x    frame=  170 fps=9.3 q=25.0 size=     322kB time=00:00:13.20 bitrate= 199.8kbits/s dup=0 drop=380 speed=0.723x    frame=  175 fps=9.3 q=25.0 size=     322kB time=00:00:13.70 bitrate= 192.5kbits/s dup=0 drop=390 speed=0.73x    frame=  180 fps=9.3 q=25.0 size=     322kB time=00:00:14.20 bitrate= 185.8kbits/s dup=0 drop=400 speed=0.736x    frame=  185 fps=9.3 q=25.0 size=     322kB time=00:00:14.70 bitrate= 179.4kbits/s dup=0 drop=411 speed=0.742x    frame=  190 fps=9.3 q=25.0 size=     322kB time=00:00:15.20 bitrate= 173.5kbits/s dup=0 drop=421 speed=0.748x    frame=  195 fps=9.4 q=25.0 size=     372kB time=00:00:15.70 bitrate= 194.2kbits/s dup=0 drop=431 speed=0.754x    frame=  201 fps=9.4 q=25.0 size=     372kB time=00:00:16.30 bitrate= 187.0kbits/s dup=0 drop=442 speed=0.763x    frame=  206 fps=9.4 q=25.0 size=     372kB time=00:00:16.80 bitrate= 181.5kbits/s dup=0 drop=452 speed=0.767x    frame=  211 fps=9.4 q=25.0 size=     372kB time=00:00:17.30 bitrate= 176.2kbits/s dup=0 drop=463 speed=0.771x    frame=  216 fps=9.4 q=25.0 size=     372kB time=00:00:17.80 bitrate= 171.3kbits/s dup=0 drop=473 speed=0.776x    frame=  222 fps=9.5 q=25.0 size=     372kB time=00:00:18.40 bitrate= 165.7kbits/s dup=0 drop=484 speed=0.784x    frame=  227 fps=9.5 q=25.0 size=     372kB time=00:00:18.90 bitrate= 161.3kbits/s dup=0 drop=494 speed=0.789x    frame=  232 fps=9.5 q=25.0 size=     372kB time=00:00:19.40 bitrate= 157.2kbits/s dup=0 drop=504 speed=0.792x    frame=  237 fps=9.5 q=25.0 size=     372kB time=00:00:19.90 bitrate= 153.2kbits/s dup=0 drop=514 speed=0.796x    frame=  242 fps=9.5 q=25.0 size=     372kB time=00:00:20.40 bitrate= 149.5kbits/s dup=0 drop=525 speed=0.799x    frame=  247 fps=9.5 q=25.0 size=     428kB time=00:00:20.90 bitrate= 167.8kbits/s dup=0 drop=535 speed=0.803x    frame=  253 fps=9.5 q=25.0 size=     428kB time=00:00:21.50 bitrate= 163.1kbits/s dup=0 drop=546 speed=0.809x    frame=  258 fps=9.5 q=25.0 size=     428kB time=00:00:22.00 bitrate= 159.4kbits/s dup=0 drop=556 speed=0.812x    frame=  263 fps=9.5 q=25.0 size=     428kB time=00:00:22.50 bitrate= 155.9kbits/s dup=0 drop=566 speed=0.815x    frame=  268 fps=9.5 q=25.0 size=     428kB time=00:00:23.00 bitrate= 152.5kbits/s dup=0 drop=576 speed=0.818x    frame=  273 fps=9.5 q=25.0 size=     428kB time=00:00:23.50 bitrate= 149.3kbits/s dup=0 drop=587 speed=0.821x    frame=  278 fps=9.5 q=25.0 size=     428kB time=00:00:24.00 bitrate= 146.2kbits/s dup=0 drop=597 speed=0.824x    frame=  283 fps=9.5 q=25.0 size=     428kB time=00:00:24.50 bitrate= 143.2kbits/s dup=0 drop=607 speed=0.827x    frame=  288 fps=9.6 q=25.0 size=     428kB time=00:00:25.00 bitrate= 140.3kbits/s dup=0 drop=617 speed=0.829x    frame=  294 fps=9.6 q=25.0 size=     428kB time=00:00:25.60 bitrate= 137.0kbits/s dup=0 drop=628 speed=0.835x    frame=  299 fps=9.6 q=25.0 size=     459kB time=00:00:26.10 bitrate= 144.2kbits/s dup=0 drop=638 speed=0.837x    frame=  304 fps=9.6 q=25.0 size=     459kB time=00:00:26.60 bitrate= 141.5kbits/s dup=0 drop=648 speed=0.84x    frame=  309 fps=9.6 q=25.0 size=     459kB time=00:00:27.10 bitrate= 138.9kbits/s dup=0 drop=658 speed=0.842x    frame=  314 fps=9.6 q=25.0 size=     459kB time=00:00:27.60 bitrate= 136.3kbits/s dup=0 drop=668 speed=0.844x    frame=  319 fps=9.6 q=25.0 size=     459kB time=00:00:28.10 bitrate= 133.9kbits/s dup=0 drop=679 speed=0.845x    frame=  324 fps=9.6 q=25.0 size=     459kB time=00:00:28.60 bitrate= 131.6kbits/s dup=0 drop=689 speed=0.848x    frame=  329 fps=9.6 q=25.0 size=     459kB time=00:00:29.10 bitrate= 129.3kbits/s dup=0 drop=699 speed=0.85x    frame=  335 fps=9.6 q=25.0 size=     459kB time=00:00:29.70 bitrate= 126.7kbits/s dup=0 drop=710 speed=0.854x    frame=  340 fps=9.6 q=25.0 size=     459kB time=00:00:30.20 bitrate= 124.6kbits/s dup=0 drop=720 speed=0.855x    frame=  345 fps=9.6 q=25.0 size=     459kB time=00:00:30.70 bitrate= 122.6kbits/s dup=0 drop=730 speed=0.857x    frame=  350 fps=9.6 q=25.0 size=     754kB time=00:00:31.20 bitrate= 198.0kbits/s dup=0 drop=741 speed=0.859x    frame=  356 fps=9.7 q=25.0 size=     754kB time=00:00:31.80 bitrate= 194.3kbits/s dup=0 drop=752 speed=0.862x    frame=  361 fps=9.7 q=25.0 size=     754kB time=00:00:32.30 bitrate= 191.3kbits/s dup=0 drop=762 speed=0.864x    frame=  366 fps=9.7 q=25.0 size=     754kB time=00:00:32.80 bitrate= 188.4kbits/s dup=0 drop=772 speed=0.865x    frame=  371 fps=9.7 q=25.0 size=     754kB time=00:00:33.30 bitrate= 185.5kbits/s dup=0 drop=783 speed=0.866x    frame=  376 fps=9.7 q=25.0 size=     754kB time=00:00:33.80 bitrate= 182.8kbits/s dup=0 drop=793 speed=0.868x    frame=  380 fps=9.5 q=-1.0 Lsize=     780kB time=00:00:39.20 bitrate= 163.0kbits/s dup=0 drop=802 speed=0.975x    
video:777kB audio:0kB subtitle:0kB other streams:0kB global headers:0kB muxing overhead: 0.440499%
[libx264 @ 0x55aec9c8b5c0] frame I:2     Avg QP:13.79  size:181518
[libx264 @ 0x55aec9c8b5c0] frame P:104   Avg QP:17.30  size:  3457
[libx264 @ 0x55aec9c8b5c0] frame B:274   Avg QP:23.98  size:   264
[libx264 @ 0x55aec9c8b5c0] consecutive B-frames:  1.1%  6.8%  4.7% 87.4%
[libx264 @ 0x55aec9c8b5c0] mb I  I16..4: 37.9% 16.0% 46.1%
[libx264 @ 0x55aec9c8b5c0] mb P  I16..4:  1.0%  1.0%  0.9%  P16..4:  6.7%  0.7%  0.8%  0.0%  0.0%    skip:88.9%
[libx264 @ 0x55aec9c8b5c0] mb B  I16..4:  0.2%  0.2%  0.0%  B16..8:  4.0%  0.2%  0.0%  direct: 0.0%  skip:95.4%  L0:51.4% L1:48.3% BI: 0.3%
[libx264 @ 0x55aec9c8b5c0] 8x8 transform intra:30.0% inter:56.4%
[libx264 @ 0x55aec9c8b5c0] coded y,uvDC,uvAC intra: 31.9% 26.7% 22.8% inter: 0.7% 0.6% 0.1%
[libx264 @ 0x55aec9c8b5c0] i16 v,h,dc,p: 45% 49%  5%  1%
[libx264 @ 0x55aec9c8b5c0] i8 v,h,dc,ddl,ddr,vr,hd,vl,hu: 30% 22% 42%  1%  1%  1%  1%  1%  2%
[libx264 @ 0x55aec9c8b5c0] i4 v,h,dc,ddl,ddr,vr,hd,vl,hu: 33% 31% 12%  3%  4%  4%  5%  3%  4%
[libx264 @ 0x55aec9c8b5c0] i8c dc,h,v,p: 63% 24% 11%  1%
[libx264 @ 0x55aec9c8b5c0] Weighted P-Frames: Y:0.0% UV:0.0%
[libx264 @ 0x55aec9c8b5c0] ref P L0: 51.7%  2.9% 28.5% 16.9%
[libx264 @ 0x55aec9c8b5c0] ref B L0: 73.2% 24.2%  2.6%
[libx264 @ 0x55aec9c8b5c0] ref B L1: 96.0%  4.0%
[libx264 @ 0x55aec9c8b5c0] kb/s:160.97
